<svg width="259" height="194" version="1.1" xmlns="http://www.w3.org/2000/svg" desc="Created with imagetracer.js version 1.2.6" ><path fill="rgb(0,0,0)" stroke="rgb(0,0,0)" stroke-width="1" opacity="0" d="M 0 0 L 259 0 L 259 194 L 0 194 L 0 0 Z M 146 27 L 147 33 Q 136 43 123 50 L 121 53 L 149 34 L 149 36 L 152 38 L 149 29 L 146 27 Z M 116 51 L 112 54 L 112 59 L 110 59 L 105 66 L 110 70 L 109 70 L 99 82 L 99 84 L 101 83 L 102 84 L 100 85 L 104 86 L 106 83 L 107 83 L 104 87 L 107 91 Q 106 97 109 100 Q 108 105 112 103 L 113 106 L 110 107 L 111 109 L 109 112 Q 110 118 113 122 L 112 121 L 107 134 Q 109 140 106 142 L 108 149 Q 106 154 110 153 L 112 156 Q 115 155 114 158 Q 119 160 117 155 Q 116 152 112 153 Q 109 151 110 145 L 108 143 L 110 142 Q 112 140 111 135 L 120 127 Q 116 122 115 116 L 111 114 L 112 112 L 114 115 L 115 111 L 115 116 L 117 115 L 116 117 L 119 124 Q 122 128 128 128 L 127 131 L 128 134 L 126 139 Q 126 146 130 150 L 127 156 L 127 159 L 127 161 Q 123 160 125 164 L 130 162 L 129 160 Q 128 157 131 158 L 133 150 L 133 152 L 135 151 Q 134 148 137 149 L 135 146 L 137 142 L 135 131 L 132 130 L 133 128 L 132 123 L 133 121 L 134 124 L 133 129 L 134 130 L 136 127 Q 135 123 138 124 L 138 121 L 136 121 L 138 117 L 139 122 L 143 124 L 142 123 L 139 125 L 140 130 Q 139 133 142 132 L 145 128 L 143 122 L 145 121 Q 144 125 147 128 L 146 133 L 146 141 L 147 142 L 145 142 L 142 157 L 143 159 L 145 158 L 146 156 L 145 154 L 147 150 L 148 142 L 150 139 Q 151 136 148 137 L 148 135 L 150 135 L 153 123 L 156 118 L 156 110 L 152 102 L 161 104 L 162 103 L 159 99 Q 153 98 151 101 L 143 97 L 143 99 L 143 101 L 142 98 L 141 100 L 140 100 L 141 98 L 139 97 Q 140 92 137 90 Q 138 86 135 87 L 135 85 L 135 83 L 130 81 L 135 80 Q 133 78 134 73 L 132 74 L 130 74 L 136 71 L 136 66 L 133 66 L 133 65 Q 135 66 134 63 L 128 60 L 126 60 L 120 59 L 121 56 L 119 53 L 116 51 Z " /><path fill="rgb(0,0,0)" stroke="rgb(0,0,0)" stroke-width="1" opacity="0" d="M 111.5 60 L 117.5 63 L 119 62.5 L 120 65.5 L 118 65.5 Q 117.1 68.5 121.5 67 L 125 64.5 Q 125.8 66.8 123.5 66 L 122 69 L 119.5 68 L 113.5 70 L 115 67.5 L 114.5 66 L 111 68 L 109 62.5 L 111.5 60 Z " /><path fill="rgb(0,0,0)" stroke="rgb(0,0,0)" stroke-width="1" opacity="0" d="M 128.5 66 L 131 67 L 130.5 69 L 128.5 66 Z " /><path fill="rgb(0,0,0)" stroke="rgb(0,0,0)" stroke-width="1" opacity="0" d="M 122.5 71 Q 124.8 70.3 124 72.5 L 122.5 71 Z " /><path fill="rgb(0,0,0)" stroke="rgb(0,0,0)" stroke-width="1" opacity="0" d="M 111 74 Q 114 73 113 76 Q 110 77 111 74 Z " /><path fill="rgb(0,0,0)" stroke="rgb(0,0,0)" stroke-width="1" opacity="0" d="M 118.5 74 Q 120 77.5 121.5 75 L 123.5 74 L 121 77.5 L 122.5 79 L 125 79.5 L 122 81 Q 120.8 84 124.5 83 L 126 82.5 L 123 87 Q 119 88.4 121 81.5 L 118.5 74 Z " /><path fill="rgb(0,0,0)" stroke="rgb(0,0,0)" stroke-width="1" opacity="0" d="M 127.5 77 L 132 77.5 L 127.5 78 L 127.5 77 Z " /><path fill="rgb(0,0,0)" stroke="rgb(0,0,0)" stroke-width="1" opacity="0" d="M 115.5 81 L 114.5 83 L 115.5 81 Z " /><path fill="rgb(0,0,0)" stroke="rgb(0,0,0)" stroke-width="1" opacity="0" d="M 108.5 84 Q 110.8 83.3 110 85.5 L 113 97.5 L 111 98 L 110.5 100 L 107 85.5 L 108.5 84 Z " /><path fill="rgb(0,0,0)" stroke="rgb(0,0,0)" stroke-width="1" opacity="0" d="M 126.5 95 L 130 99.5 L 128 98.5 L 126.5 95 Z " /><path fill="rgb(0,0,0)" stroke="rgb(0,0,0)" stroke-width="1" opacity="0" d="M 126.5 100 L 125.5 102 L 126.5 100 Z " /><path fill="rgb(0,0,0)" stroke="rgb(0,0,0)" stroke-width="1" opacity="0" d="M 137.5 100 L 138 104 L 140.5 103 L 141.5 105 L 143 104.5 L 139 107 L 137.5 104 L 137 106.5 L 137.5 108 Q 135.3 108.8 136 106.5 L 136 104.5 L 137.5 100 Z " /><path fill="rgb(0,0,0)" stroke="rgb(0,0,0)" stroke-width="1" opacity="0" d="M 156.5 100 L 157.5 102 L 156.5 100 Z " /><path fill="rgb(0,0,0)" stroke="rgb(0,0,0)" stroke-width="1" opacity="0" d="M 129 102 Q 132.3 100.7 131 105.5 L 130 105.5 L 129 102 Z " /><path fill="rgb(0,0,0)" stroke="rgb(0,0,0)" stroke-width="1" opacity="0" d="M 132.5 107 L 134 110.5 L 132 109.5 L 132.5 107 Z " /><path fill="rgb(0,0,0)" stroke="rgb(0,0,0)" stroke-width="1" opacity="0" d="M 140.5 108 Q 143.1 107.2 142 110.5 L 137.5 113 L 138.5 111 Q 141.8 112.1 141 109.5 L 140.5 108 Z " /><path fill="rgb(0,0,0)" stroke="rgb(0,0,0)" stroke-width="1" opacity="0" d="M 145.5 109 L 146 111.5 L 145 111.5 L 145.5 109 Z " /><path fill="rgb(0,0,0)" stroke="rgb(0,0,0)" stroke-width="1" opacity="0" d="M 133.5 112 Q 137.3 110.8 136 114.5 L 133.5 112 Z " /><path fill="rgb(0,0,0)" stroke="rgb(0,0,0)" stroke-width="1" opacity="0" d="M 141.5 115 L 143.5 119 L 145 118.5 Q 143.5 121.5 142 118.5 L 141.5 115 Z " /><path fill="rgb(0,0,0)" stroke="rgb(0,0,0)" stroke-width="1" opacity="0" d="M 131.5 118 L 132 119.5 L 130 120.5 L 131.5 118 Z " /><path fill="rgb(0,0,0)" stroke="rgb(0,0,0)" stroke-width="1" opacity="0" d="M 121.5 121 L 123.5 124 L 126 122.5 L 124.5 126 L 121 122.5 L 121.5 121 Z " /><path fill="rgb(0,0,0)" stroke="rgb(0,0,0)" stroke-width="1" opacity="0" d="M 127.5 123 L 128 125.5 L 127 125.5 L 127.5 123 Z " /><path fill="rgb(0,0,0)" stroke="rgb(0,0,0)" stroke-width="1" opacity="0" d="M 132.5 133 L 135 137.5 L 133 136.5 L 132.5 134 L 131 134.5 L 132.5 133 Z " /><path fill="rgb(0,0,0)" stroke="rgb(0,0,0)" stroke-width="1" opacity="0" d="M 130.5 137 Q 133.5 140.1 132 147 L 135 147.5 L 132.5 148 L 130 143.5 L 131 141.5 L 130.5 137 Z " /><path fill="rgb(1,1,1)" stroke="rgb(1,1,1)" stroke-width="1" opacity="0.984313725490196" d="M 147.5 27 L 152 36.5 L 150 37 L 148.5 34 L 121.5 53 L 121 51 Q 135.8 43.5 148 32.5 L 147.5 27 Z " /><path fill="rgb(1,1,1)" stroke="rgb(1,1,1)" stroke-width="1" opacity="0.984313725490196" d="M 114.5 52 Q 120.3 49.9 119 54.5 L 118 54.5 L 117.5 53 L 117 56 L 120.5 55 L 119 57.5 L 121.5 60 L 123.5 59 L 123.5 61 L 127.5 60 L 134 64.5 L 130.5 67 L 128 65.5 L 129.5 69 Q 132.8 70.1 132 67.5 L 134.5 66 Q 137 67.2 136 71 L 130.5 73 L 126 73 L 127 70.5 L 125 70 L 126.5 76 L 130.5 74 L 131.5 75 L 134 73.5 L 134 75.5 Q 136.3 82.7 128.5 80 L 126 81.5 L 131.5 82 L 134 81 L 135 85.5 L 131 86 Q 129.9 88.7 132.5 88 L 135 87 L 135.5 90 L 136.5 88 L 138 90.5 L 137 93.5 L 139 93.5 L 135 105.5 L 136.5 110 L 138 109.5 L 138 112 Q 141 110.8 140 114.5 L 142 122 L 139 120.5 L 138 117.5 L 140 117.5 L 137.5 112 L 134.5 111 L 132 111.5 L 134.5 118 L 137 117 L 138 121.5 L 137 121.5 L 136.5 120 L 135 124.5 L 135 126.5 L 134.5 128 L 134 126.5 L 134 124.5 Q 133.4 119.9 136 118.5 L 132 121.5 L 133 125.5 L 131 131.5 L 134 131.5 L 133 129.5 L 135 130.5 L 134.5 135 L 132.5 132 L 130 137 Q 127.3 135.9 128 138.5 L 127.5 140 Q 129.8 140.8 129 138.5 L 130 138.5 Q 131.3 143.2 129 144.5 L 130 147 L 133 148.5 L 133.5 150 L 135.5 146 L 136 148.5 L 133.5 152 L 133 150 L 127 145.5 L 127 143.5 L 126 139.5 L 128 136.5 L 128 123.5 L 127 123.5 Q 128.9 128.9 125.5 128 L 120 124.5 L 115.5 116 L 114 118.5 L 118 123.5 L 115 122.5 L 116.5 125 Q 118.8 124.3 118 126.5 L 118.5 128 L 110 135.5 L 109 139.5 Q 111.2 140.8 108.5 142 L 107 141.5 L 107 134.5 L 109 131.5 L 111.5 121 L 113 121.5 L 110 113.5 L 112 114.5 L 113.5 117 Q 116.5 115.5 115 109.5 L 111 100.5 L 114 99.5 L 112 95.5 L 112 89.5 L 110 83.5 L 112 83 L 112.5 80 Q 113.7 82.3 115 79.5 L 114.5 78 L 110 80.5 L 110.5 82 Q 108.3 82.8 109 80.5 L 105 73.5 L 109.5 70 L 112.5 71 L 112.5 70 L 109.5 68 Q 107.8 70.8 106 66.5 L 108 66.5 Q 106.8 60.3 110.5 59 L 114.5 58 L 116 58.5 L 115.5 56 L 112.5 58 L 112 54.5 L 114.5 52 Z M 111 60 Q 108 61 109 66 L 113 69 Q 112 66 115 67 L 114 72 Q 117 73 116 71 L 120 68 L 122 69 L 123 67 L 125 67 L 126 62 Q 123 61 124 65 L 121 66 Q 119 68 118 66 L 120 66 L 119 64 L 120 62 L 118 63 L 114 60 L 111 60 Z M 118 70 L 118 74 L 118 77 L 115 81 L 116 82 L 119 78 L 121 84 Q 119 89 123 88 L 126 83 L 125 82 L 123 83 Q 122 80 125 81 L 125 79 Q 121 80 122 78 L 125 76 L 124 70 L 121 72 L 123 72 Q 125 77 119 75 L 118 70 Z M 111 74 L 113 76 Q 114 73 111 74 Z M 116 74 L 114 76 L 116 76 L 117 77 L 116 74 Z M 132 76 L 127 78 L 132 79 L 133 77 L 132 76 Z M 123 89 L 120 91 L 121 93 L 123 92 L 122 94 L 123 98 L 123 100 L 124 101 L 125 98 L 125 96 L 128 99 L 126 99 L 123 104 L 125 104 L 128 100 L 131 110 L 132 108 L 132 110 L 134 111 L 131 105 L 131 100 L 130 102 L 129 102 L 130 100 L 127 92 L 126 95 L 123 89 Z M 113 101 L 114 105 L 115 105 Q 116 100 113 101 Z M 121 105 L 119 108 L 122 106 L 121 105 Z M 128 106 L 127 110 L 128 110 L 128 106 Z M 119 108 L 117 110 L 119 110 L 119 108 Z M 117 110 L 116 114 L 117 114 L 117 110 Z M 127 110 L 125 113 L 127 112 L 127 110 Z M 122 115 L 121 118 L 123 118 L 124 116 L 122 115 Z M 130 115 Q 127 116 128 120 L 124 122 L 124 124 L 121 119 L 120 119 Q 119 125 124 126 Q 127 127 125 123 L 127 123 L 130 118 L 130 115 Z M 132 118 L 129 123 L 132 121 L 132 118 Z M 116 125 L 115 128 L 115 129 Q 117 130 116 128 Q 118 126 116 125 Z " /><path fill="rgb(1,1,1)" stroke="rgb(1,1,1)" stroke-width="1" opacity="0.984313725490196" d="M 103.5 78 L 105.5 79 L 107 78.5 L 105 85 Q 108.3 83.7 107 88.5 L 106 88.5 Q 106.8 86.3 104.5 87 Q 101.8 85.8 104 84.5 L 103.5 83 L 101 84.5 L 102.5 82 L 99.5 84 L 99 82.5 L 100 80 L 103.5 78 Z " /><path fill="rgb(1,1,1)" stroke="rgb(1,1,1)" stroke-width="1" opacity="0.984313725490196" d="M 107.5 82 L 108.5 84 Q 105.7 84.7 107.5 82 Z " /><path fill="rgb(1,1,1)" stroke="rgb(1,1,1)" stroke-width="1" opacity="0.984313725490196" d="M 142.5 97 L 146.5 98 L 150.5 102 L 154.5 99 L 157.5 99 L 161 104 L 159 103.5 Q 161.7 101.8 157.5 100 L 156 100.5 L 157.5 103 L 155 102 L 154.5 100 L 151 102.5 Q 156.5 106 156 115.5 Q 151.1 123.6 149.5 135 L 148.5 131 L 147 134.5 L 148 137 L 150 137.5 L 147 143.5 L 145 154.5 L 145.5 156 L 144 156.5 L 144.5 158 L 142 157.5 L 144 153.5 L 143 150.5 Q 146.2 148 145 142 Q 147.7 143.1 147 140.5 Q 144.8 139.2 146 134.5 L 148 129.5 L 147 127 L 150 125.5 L 145 123.5 L 144 120.5 L 147 119.5 L 148 112.5 L 145.5 108 L 145 116.5 L 143.5 119 L 141 112.5 Q 143.3 111.2 142 106.5 L 144 103.5 L 144 99.5 L 142 98.5 L 141.5 105 L 141 98.5 L 142.5 97 Z " /><path fill="rgb(1,1,1)" stroke="rgb(1,1,1)" stroke-width="1" opacity="0.984313725490196" d="M 109.5 98 L 110 100.5 L 109 100.5 L 109.5 98 Z " /><path fill="rgb(1,1,1)" stroke="rgb(1,1,1)" stroke-width="1" opacity="0.984313725490196" d="M 139.5 98 L 140 103.5 L 138 102.5 L 139.5 98 Z " /><path fill="rgb(1,1,1)" stroke="rgb(1,1,1)" stroke-width="1" opacity="0.984313725490196" d="M 137.5 104 L 139.5 108 L 141 107.5 L 140.5 110 Q 138.3 110.8 139 108.5 L 137.5 104 Z " /><path fill="rgb(1,1,1)" stroke="rgb(1,1,1)" stroke-width="1" opacity="0.984313725490196" d="M 111.5 105 L 113 111 L 110.5 112 L 110 110.5 L 111.5 105 Z " /><path fill="rgb(1,1,1)" stroke="rgb(1,1,1)" stroke-width="1" opacity="0.984313725490196" d="M 136.5 113 L 138 115.5 L 136 114.5 L 136.5 113 Z " /><path fill="rgb(1,1,1)" stroke="rgb(1,1,1)" stroke-width="1" opacity="0.984313725490196" d="M 146.5 113 L 147 115.5 L 146 115.5 L 146.5 113 Z " /><path fill="rgb(1,1,1)" stroke="rgb(1,1,1)" stroke-width="1" opacity="0.984313725490196" d="M 143.5 122 L 144 128.5 L 141.5 132 Q 138.8 132.6 140 126.5 L 139 124.5 L 141 123.5 L 140 125.5 L 143 127 L 143.5 122 Z " /><path fill="rgb(1,1,1)" stroke="rgb(1,1,1)" stroke-width="1" opacity="0.984313725490196" d="M 132.5 134 L 134 137.5 L 134 139.5 L 134.5 143 L 136 142.5 L 133.5 146 Q 130.9 146.8 132 143.5 L 133 140.5 L 131 136.5 L 132.5 134 Z " /><path fill="rgb(1,1,1)" stroke="rgb(1,1,1)" stroke-width="1" opacity="0.984313725490196" d="M 135.5 136 L 136 139.5 L 135 139.5 L 135.5 136 Z " /><path fill="rgb(1,1,1)" stroke="rgb(1,1,1)" stroke-width="1" opacity="0.984313725490196" d="M 107 143 Q 110.7 141.7 109 147.5 L 113.5 154 L 115 153.5 L 114 155.5 L 115.5 155 Q 118.5 154.2 117 158 L 111 154.5 Q 111.7 151.5 108 153 L 108 146.5 L 107 143 Z " /><path fill="rgb(1,1,1)" stroke="rgb(1,1,1)" stroke-width="1" opacity="0.984313725490196" d="M 130.5 151 Q 133.3 152.3 131 153.5 L 131 156.5 L 127.5 163 L 125.5 164 L 125 162.5 L 128 161.5 Q 128.8 159.3 126.5 160 L 126.5 159 L 128 159 Q 126.5 155.3 129.5 156 L 129.5 155 L 128 154.5 L 130.5 151 Z " /><path fill="rgb(2,2,2)" stroke="rgb(2,2,2)" stroke-width="1" opacity="0.49019607843137253" d="M 147.5 31 L 148 32.5 L 146.5 36 Q 143.3 34.3 147 32.5 L 147.5 31 Z " /><path fill="rgb(2,2,2)" stroke="rgb(2,2,2)" stroke-width="1" opacity="0.49019607843137253" d="M 141.5 37 L 144 37.5 Q 141.9 40.8 141.5 37 Z " /><path fill="rgb(2,2,2)" stroke="rgb(2,2,2)" stroke-width="1" opacity="0.49019607843137253" d="M 138.5 39 Q 141.5 40.5 138.5 42 Q 135.5 40.5 138.5 39 Z " /><path fill="rgb(2,2,2)" stroke="rgb(2,2,2)" stroke-width="1" opacity="0.49019607843137253" d="M 134.5 42 L 135.5 44 L 134.5 42 Z " /><path fill="rgb(2,2,2)" stroke="rgb(2,2,2)" stroke-width="1" opacity="0.49019607843137253" d="M 131.5 44 L 132.5 46 L 131.5 44 Z " /><path fill="rgb(2,2,2)" stroke="rgb(2,2,2)" stroke-width="1" opacity="0.49019607843137253" d="M 128.5 46 L 129.5 48 L 128.5 46 Z " /><path fill="rgb(2,2,2)" stroke="rgb(2,2,2)" stroke-width="1" opacity="0.49019607843137253" d="M 125.5 48 L 126.5 50 L 125.5 48 Z " /><path fill="rgb(2,2,2)" stroke="rgb(2,2,2)" stroke-width="1" opacity="0.49019607843137253" d="M 122.5 50 Q 125.5 51.5 122.5 53 L 122.5 50 Z " /><path fill="rgb(2,2,2)" stroke="rgb(2,2,2)" stroke-width="1" opacity="0.49019607843137253" d="M 115.5 51 L 118 51.5 L 115.5 52 L 115.5 51 Z " /><path fill="rgb(2,2,2)" stroke="rgb(2,2,2)" stroke-width="1" opacity="0.49019607843137253" d="M 113.5 52 L 112.5 54 L 113.5 52 Z " /><path fill="rgb(2,2,2)" stroke="rgb(2,2,2)" stroke-width="1" opacity="0.49019607843137253" d="M 117.5 53 L 118 55.5 L 117 55.5 L 117.5 53 Z " /><path fill="rgb(2,2,2)" stroke="rgb(2,2,2)" stroke-width="1" opacity="0.49019607843137253" d="M 115.5 56 L 116 58.5 L 114.5 58 L 112.5 59 L 113.5 57 L 115.5 56 Z " /><path fill="rgb(2,2,2)" stroke="rgb(2,2,2)" stroke-width="1" opacity="0.49019607843137253" d="M 109.5 59 Q 112.5 60.5 109.5 62 L 108 61.5 L 107 63.5 L 108 66.5 L 106.5 66 L 105 65.5 L 109.5 59 Z " /><path fill="rgb(2,2,2)" stroke="rgb(2,2,2)" stroke-width="1" opacity="0.49019607843137253" d="M 121.5 59 L 125.5 60 L 127 59.5 L 123.5 61 L 121.5 59 Z " /><path fill="rgb(2,2,2)" stroke="rgb(2,2,2)" stroke-width="1" opacity="0.49019607843137253" d="M 130.5 61 L 131.5 63 L 130.5 61 Z " /><path fill="rgb(2,2,2)" stroke="rgb(2,2,2)" stroke-width="1" opacity="0.49019607843137253" d="M 124 62 Q 127 60.8 126 64.5 L 124 63.5 L 124 62 Z " /><path fill="rgb(2,2,2)" stroke="rgb(2,2,2)" stroke-width="1" opacity="0.49019607843137253" d="M 109.5 65 L 110.5 67 L 109.5 65 Z " /><path fill="rgb(2,2,2)" stroke="rgb(2,2,2)" stroke-width="1" opacity="0.49019607843137253" d="M 122.5 65 L 122.5 68 L 120 66.5 L 122.5 65 Z " /><path fill="rgb(2,2,2)" stroke="rgb(2,2,2)" stroke-width="1" opacity="0.49019607843137253" d="M 128.5 65 L 130 66.5 L 128.5 70 L 127 69.5 L 129 68.5 L 128.5 65 Z " /><path fill="rgb(2,2,2)" stroke="rgb(2,2,2)" stroke-width="1" opacity="0.49019607843137253" d="M 131 66 L 133 66.5 L 131.5 69 L 131 66 Z " /><path fill="rgb(2,2,2)" stroke="rgb(2,2,2)" stroke-width="1" opacity="0.49019607843137253" d="M 109.5 68 L 112.5 70 L 114.5 70 L 116.5 69 L 119 73.5 L 117 72.5 L 116.5 70 L 116 72 L 110 71 L 109.5 68 Z " /><path fill="rgb(2,2,2)" stroke="rgb(2,2,2)" stroke-width="1" opacity="0.49019607843137253" d="M 125.5 71 L 126 73 L 130 73.5 L 125 74 Q 126.1 76.7 123.5 76 L 121 77.5 Q 125.3 75.2 123.5 73 L 125 73.5 L 125.5 71 Z " /><path fill="rgb(2,2,2)" stroke="rgb(2,2,2)" stroke-width="1" opacity="0.49019607843137253" d="M 131.5 72 L 134 72.5 L 133.5 75 L 131 74.5 L 131.5 72 Z " /><path fill="rgb(2,2,2)" stroke="rgb(2,2,2)" stroke-width="1" opacity="0.49019607843137253" d="M 115.5 74 L 117.5 77 L 119 76.5 L 117.5 79 L 116 78.5 Q 118.3 77.3 115.5 76 L 114 75.5 L 115.5 74 Z " /><path fill="rgb(2,2,2)" stroke="rgb(2,2,2)" stroke-width="1" opacity="0.49019607843137253" d="M 105.5 75 L 107.5 78 L 106 78.5 L 109 80.5 Q 108.3 82.8 110.5 82 L 111.5 79 L 114.5 78 L 115 80 L 117 80.5 L 115.5 81 L 112.5 80 L 111 80.5 L 113 84.5 L 112 84.5 Q 112.8 82.3 110.5 83 L 111 84.5 L 110.5 86 L 109 82 Q 104.9 83.7 106 79.5 L 103.5 78 L 101 79.5 L 105.5 75 Z " /><path fill="rgb(2,2,2)" stroke="rgb(2,2,2)" stroke-width="1" opacity="0.49019607843137253" d="M 110.5 77 L 109.5 79 L 110.5 77 Z " /><path fill="rgb(2,2,2)" stroke="rgb(2,2,2)" stroke-width="1" opacity="0.49019607843137253" d="M 128.5 80 L 132 81.5 L 129.5 82 L 128.5 80 Z " /><path fill="rgb(2,2,2)" stroke="rgb(2,2,2)" stroke-width="1" opacity="0.49019607843137253" d="M 120.5 81 L 121 82.5 L 119.5 85 L 119 83.5 L 120.5 81 Z " /><path fill="rgb(2,2,2)" stroke="rgb(2,2,2)" stroke-width="1" opacity="0.49019607843137253" d="M 101.5 82 L 104 83.5 Q 104.8 85.8 102.5 85 Q 101.2 87.3 100 84.5 L 103 83.5 L 101.5 82 Z " /><path fill="rgb(2,2,2)" stroke="rgb(2,2,2)" stroke-width="1" opacity="0.49019607843137253" d="M 105.5 83 L 108 84.5 L 106.5 85 L 105.5 83 Z " /><path fill="rgb(2,2,2)" stroke="rgb(2,2,2)" stroke-width="1" opacity="0.49019607843137253" d="M 131.5 86 L 133.5 86 L 137 87.5 L 135.5 90 L 135 87 L 131 88 L 131.5 86 Z " /><path fill="rgb(2,2,2)" stroke="rgb(2,2,2)" stroke-width="1" opacity="0.49019607843137253" d="M 107.5 88 L 108 90.5 L 106 89.5 L 107.5 88 Z " /><path fill="rgb(2,2,2)" stroke="rgb(2,2,2)" stroke-width="1" opacity="0.49019607843137253" d="M 111.5 89 L 112 92.5 L 111 92.5 L 111.5 89 Z " /><path fill="rgb(2,2,2)" stroke="rgb(2,2,2)" stroke-width="1" opacity="0.49019607843137253" d="M 120.5 90 L 124 91.5 L 122 92.5 L 124.5 94 L 127 92.5 L 126 93.5 L 129.5 98 L 125.5 96 Q 122.2 97.1 123 94.5 L 120.5 90 Z " /><path fill="rgb(2,2,2)" stroke="rgb(2,2,2)" stroke-width="1" opacity="0.49019607843137253" d="M 137.5 91 L 139 94.5 Q 137.9 97.8 140.5 97 L 140.5 98 Q 136.3 99.3 138 94.5 L 137.5 91 Z " /><path fill="rgb(2,2,2)" stroke="rgb(2,2,2)" stroke-width="1" opacity="0.49019607843137253" d="M 107 93 Q 110 92 109 95 Q 106 96 107 93 Z " /><path fill="rgb(2,2,2)" stroke="rgb(2,2,2)" stroke-width="1" opacity="0.49019607843137253" d="M 136.5 95 L 135.5 97 L 136.5 95 Z " /><path fill="rgb(2,2,2)" stroke="rgb(2,2,2)" stroke-width="1" opacity="0.49019607843137253" d="M 108 97 L 110 97.5 L 108 98.5 L 108 97 Z " /><path fill="rgb(2,2,2)" stroke="rgb(2,2,2)" stroke-width="1" opacity="0.49019607843137253" d="M 123.5 97 Q 126.5 96.2 125 100 L 123 99.5 L 123.5 97 Z " /><path fill="rgb(2,2,2)" stroke="rgb(2,2,2)" stroke-width="1" opacity="0.49019607843137253" d="M 111 98 Q 114.7 96.5 114 99.5 L 111 100.5 L 112 103 Q 108.3 104.5 109 101.5 L 111 98 Z " /><path fill="rgb(2,2,2)" stroke="rgb(2,2,2)" stroke-width="1" opacity="0.49019607843137253" d="M 126.5 99 Q 130.7 97.7 129 102.5 L 128 102.5 Q 129.1 99.2 126.5 100 L 126.5 99 Z " /><path fill="rgb(2,2,2)" stroke="rgb(2,2,2)" stroke-width="1" opacity="0.49019607843137253" d="M 143.5 99 L 144 101.5 L 143.5 104 Q 140.9 104.8 142 101.5 L 143.5 99 Z " /><path fill="rgb(2,2,2)" stroke="rgb(2,2,2)" stroke-width="1" opacity="0.49019607843137253" d="M 148.5 99 Q 150 102.5 151.5 100 L 153.5 101 L 155 100.5 Q 155.8 102.8 153.5 102 L 151.5 101 L 151.5 103 L 148.5 99 Z " /><path fill="rgb(2,2,2)" stroke="rgb(2,2,2)" stroke-width="1" opacity="0.49019607843137253" d="M 158.5 99 L 161.5 103 L 160.5 102 L 158 103.5 L 157 100.5 L 158.5 99 Z " /><path fill="rgb(2,2,2)" stroke="rgb(2,2,2)" stroke-width="1" opacity="0.49019607843137253" d="M 140.5 100 L 141 102.5 L 140 102.5 L 140.5 100 Z " /><path fill="rgb(2,2,2)" stroke="rgb(2,2,2)" stroke-width="1" opacity="0.49019607843137253" d="M 113 101 L 115 101.5 L 113 102.5 L 113 101 Z " /><path fill="rgb(2,2,2)" stroke="rgb(2,2,2)" stroke-width="1" opacity="0.49019607843137253" d="M 126.5 101 L 124.5 104 L 124 102 L 126.5 101 Z " /><path fill="rgb(2,2,2)" stroke="rgb(2,2,2)" stroke-width="1" opacity="0.49019607843137253" d="M 122.5 104 L 121.5 106 Q 119.3 105.3 120 107.5 L 119 110 Q 115.7 108.7 117 113.5 L 116 113.5 L 116 110.5 L 120.5 105 L 122.5 104 Z " /><path fill="rgb(2,2,2)" stroke="rgb(2,2,2)" stroke-width="1" opacity="0.49019607843137253" d="M 129.5 104 L 130.5 106 Q 131.8 103.8 133 106.5 L 130.5 108 Q 128 107 129.5 104 Z " /><path fill="rgb(2,2,2)" stroke="rgb(2,2,2)" stroke-width="1" opacity="0.49019607843137253" d="M 138.5 105 L 137.5 107 L 138.5 105 Z " /><path fill="rgb(2,2,2)" stroke="rgb(2,2,2)" stroke-width="1" opacity="0.49019607843137253" d="M 142.5 105 L 142 106.5 L 141.5 108 L 141 106.5 L 142.5 105 Z " /><path fill="rgb(2,2,2)" stroke="rgb(2,2,2)" stroke-width="1" opacity="0.49019607843137253" d="M 139.5 107 L 139 108.5 Q 138.3 110.8 140.5 110 Q 143.5 111.5 140.5 113 L 140.5 111 Q 137.2 112.1 138 109.5 L 136 109.5 Q 135.2 106.9 138.5 108 L 139.5 107 Z " /><path fill="rgb(2,2,2)" stroke="rgb(2,2,2)" stroke-width="1" opacity="0.49019607843137253" d="M 113 109 Q 115.7 107.9 115 110.5 L 112.5 113 L 110.5 113 Q 108.3 113.8 109 111.5 L 111.5 111 Q 114.1 111.7 113 109 Z " /><path fill="rgb(2,2,2)" stroke="rgb(2,2,2)" stroke-width="1" opacity="0.49019607843137253" d="M 130.5 109 L 135.5 115 L 137.5 116 L 138 114.5 L 136.5 112 L 139 113 L 139.5 115 L 141.5 114 L 141.5 115 L 135 117.5 L 136 119.5 L 132.5 125 L 132 123.5 L 135 118.5 L 130.5 109 Z " /><path fill="rgb(2,2,2)" stroke="rgb(2,2,2)" stroke-width="1" opacity="0.49019607843137253" d="M 146.5 110 L 148 112.5 L 146 113 L 146.5 116 L 147.5 114 L 148 116.5 L 145.5 121 Q 144.3 118.8 143 121.5 L 142 123.5 L 143 126.5 L 142 126.5 L 141.5 125 L 139.5 129 L 139 126.5 Q 142.4 124.4 142.5 119 L 144.5 119 L 146 118.5 L 144 117.5 L 146 116.5 L 145 112.5 L 146.5 110 Z " /><path fill="rgb(2,2,2)" stroke="rgb(2,2,2)" stroke-width="1" opacity="0.49019607843137253" d="M 125.5 111 L 127 111.5 L 123.5 114 L 125.5 111 Z " /><path fill="rgb(2,2,2)" stroke="rgb(2,2,2)" stroke-width="1" opacity="0.49019607843137253" d="M 113.5 114 Q 111.8 116 115.5 118 L 117 117.5 L 115.5 120 L 112 115.5 L 113.5 114 Z " /><path fill="rgb(2,2,2)" stroke="rgb(2,2,2)" stroke-width="1" opacity="0.49019607843137253" d="M 129.5 115 L 130 117.5 L 128.5 119 L 128 116.5 L 129.5 115 Z " /><path fill="rgb(2,2,2)" stroke="rgb(2,2,2)" stroke-width="1" opacity="0.49019607843137253" d="M 142.5 116 L 141.5 118 L 142.5 116 Z " /><path fill="rgb(2,2,2)" stroke="rgb(2,2,2)" stroke-width="1" opacity="0.49019607843137253" d="M 120.5 119 L 121 121.5 L 120 121.5 L 120.5 119 Z " /><path fill="rgb(2,2,2)" stroke="rgb(2,2,2)" stroke-width="1" opacity="0.49019607843137253" d="M 127.5 120 L 128 121.5 L 126 122.5 L 127.5 120 Z " /><path fill="rgb(2,2,2)" stroke="rgb(2,2,2)" stroke-width="1" opacity="0.49019607843137253" d="M 131.5 120 L 129.5 123 L 129 121 L 131.5 120 Z " /><path fill="rgb(2,2,2)" stroke="rgb(2,2,2)" stroke-width="1" opacity="0.49019607843137253" d="M 136.5 121 L 138 124 L 135 125.5 L 135.5 127 Q 132.8 125.8 135 124.5 L 136.5 121 Z " /><path fill="rgb(2,2,2)" stroke="rgb(2,2,2)" stroke-width="1" opacity="0.49019607843137253" d="M 115.5 122 L 118 122.5 L 117.5 124 L 119.5 123 L 119 124.5 L 120 126.5 L 118 127 Q 119.1 124.3 116.5 125 L 116.5 127 Q 114.3 127.8 115 125.5 L 115 123.5 L 115.5 122 Z " /><path fill="rgb(2,2,2)" stroke="rgb(2,2,2)" stroke-width="1" opacity="0.49019607843137253" d="M 121.5 123 Q 126 125 122.5 127 L 121.5 123 Z " /><path fill="rgb(2,2,2)" stroke="rgb(2,2,2)" stroke-width="1" opacity="0.49019607843137253" d="M 145.5 124 L 150 125.5 L 146 127 L 145.5 125 L 144.5 128 L 144 125.5 L 145.5 124 Z " /><path fill="rgb(2,2,2)" stroke="rgb(2,2,2)" stroke-width="1" opacity="0.49019607843137253" d="M 132.5 126 L 133 128 L 135 128.5 L 133.5 129 L 132.5 126 Z " /><path fill="rgb(2,2,2)" stroke="rgb(2,2,2)" stroke-width="1" opacity="0.49019607843137253" d="M 114.5 128 L 116.5 129 L 118 128.5 L 115 130.5 L 115.5 129 L 114.5 128 Z " /><path fill="rgb(2,2,2)" stroke="rgb(2,2,2)" stroke-width="1" opacity="0.49019607843137253" d="M 147.5 129 L 149 131.5 L 147 130.5 L 147.5 129 Z " /><path fill="rgb(2,2,2)" stroke="rgb(2,2,2)" stroke-width="1" opacity="0.49019607843137253" d="M 127.5 130 L 128 132.5 L 127 132.5 L 127.5 130 Z " /><path fill="rgb(2,2,2)" stroke="rgb(2,2,2)" stroke-width="1" opacity="0.49019607843137253" d="M 131 130 L 134 131.5 L 133.5 134 L 131 133.5 L 131 131.5 L 131 130 Z " /><path fill="rgb(2,2,2)" stroke="rgb(2,2,2)" stroke-width="1" opacity="0.49019607843137253" d="M 146.5 132 L 147.5 134 L 149 133.5 Q 147.5 136.5 146 133.5 L 146.5 132 Z " /><path fill="rgb(2,2,2)" stroke="rgb(2,2,2)" stroke-width="1" opacity="0.49019607843137253" d="M 107.5 133 L 111 135.5 Q 112.7 141.3 109 140 L 110 135 L 107.5 133 Z " /><path fill="rgb(2,2,2)" stroke="rgb(2,2,2)" stroke-width="1" opacity="0.49019607843137253" d="M 127.5 134 L 128 137 L 130 137 Q 128.9 134.3 131.5 135 L 129.5 138 L 127 136.5 L 127.5 134 Z " /><path fill="rgb(2,2,2)" stroke="rgb(2,2,2)" stroke-width="1" opacity="0.49019607843137253" d="M 135.5 134 L 136 135.5 L 134 136.5 L 135.5 134 Z " /><path fill="rgb(2,2,2)" stroke="rgb(2,2,2)" stroke-width="1" opacity="0.49019607843137253" d="M 126.5 138 L 129 139.5 L 127.5 140 L 126.5 138 Z " /><path fill="rgb(2,2,2)" stroke="rgb(2,2,2)" stroke-width="1" opacity="0.49019607843137253" d="M 136.5 139 L 137 142 L 135 142.5 L 135.5 144 L 134 140 L 136.5 139 Z " /><path fill="rgb(2,2,2)" stroke="rgb(2,2,2)" stroke-width="1" opacity="0.49019607843137253" d="M 132.5 140 L 133 142.5 L 132 142.5 L 132.5 140 Z " /><path fill="rgb(2,2,2)" stroke="rgb(2,2,2)" stroke-width="1" opacity="0.49019607843137253" d="M 106.5 141 L 107.5 143 L 106.5 141 Z " /><path fill="rgb(2,2,2)" stroke="rgb(2,2,2)" stroke-width="1" opacity="0.49019607843137253" d="M 109.5 144 L 110 147.5 L 109 147.5 L 109.5 144 Z " /><path fill="rgb(2,2,2)" stroke="rgb(2,2,2)" stroke-width="1" opacity="0.49019607843137253" d="M 129.5 144 L 131 146.5 L 130 146.5 L 129.5 144 Z " /><path fill="rgb(2,2,2)" stroke="rgb(2,2,2)" stroke-width="1" opacity="0.49019607843137253" d="M 134.5 145 L 135 147 L 132 146.5 L 134.5 145 Z " /><path fill="rgb(2,2,2)" stroke="rgb(2,2,2)" stroke-width="1" opacity="0.49019607843137253" d="M 128.5 147 L 132 151.5 L 129 151.5 L 130 149.5 L 128.5 147 Z " /><path fill="rgb(2,2,2)" stroke="rgb(2,2,2)" stroke-width="1" opacity="0.49019607843137253" d="M 133 148 L 135 148.5 L 133 149.5 L 133 148 Z " /><path fill="rgb(2,2,2)" stroke="rgb(2,2,2)" stroke-width="1" opacity="0.49019607843137253" d="M 110.5 153 L 112 155.5 L 110 154.5 L 110.5 153 Z " /><path fill="rgb(2,2,2)" stroke="rgb(2,2,2)" stroke-width="1" opacity="0.49019607843137253" d="M 113.5 153 L 117 154.5 L 114.5 156 L 113.5 153 Z " /><path fill="rgb(2,2,2)" stroke="rgb(2,2,2)" stroke-width="1" opacity="0.49019607843137253" d="M 127 155 L 129 155.5 L 127.5 159 L 127 155 Z " /><path fill="rgb(2,2,2)" stroke="rgb(2,2,2)" stroke-width="1" opacity="0.49019607843137253" d="M 143.5 155 L 144.5 157 L 142 156.5 L 143.5 155 Z " /></svg>